<svg xmlns="http://www.w3.org/2000/svg" viewBox="0 0 594.8 314.23"><defs><style>.cls-1{fill:#fff;}</style></defs><title>isotipo blanco</title><g id="Imagotipo"><path class="cls-1" d="M210.23,157.11a72.56,72.56,0,0,1-145.12,0H91.89a45.78,45.78,0,1,0,59.17-43.76v43.76H124.28V85.79a72.64,72.64,0,0,1,85.95,71.32Z"/><path class="cls-1" d="M297.4,229.67a72.56,72.56,0,1,1,0-145.11v26.78a45.78,45.78,0,1,0,43.76,59.16H297.4V143.72h71.32a72.59,72.59,0,0,1-71.32,85.95Z"/><path class="cls-1" d="M457.13,84.56a72.56,72.56,0,1,0,0,145.11V202.89a45.78,45.78,0,1,1,43.76-59.17H457.13V170.5h71.32a72.58,72.58,0,0,0-71.32-85.94Z"/></g></svg>